<svg width="74" height="74" viewBox="0 0 74 74" fill="none" xmlns="http://www.w3.org/2000/svg">
<path d="M54.1371 0H19.8629C8.89292 0 0 8.89292 0 19.8629V54.1371C0 65.1071 8.89292 74 19.8629 74H54.1371C65.1071 74 74 65.1071 74 54.1371V19.8629C74 8.89292 65.1071 0 54.1371 0Z" fill="url(#paint0_linear_708_852)"/>
<path d="M36.9817 48.3429C33.8777 48.3441 30.843 47.4248 28.2615 45.7011C25.68 43.9775 23.6677 41.527 22.479 38.6596C21.2903 35.7922 20.9787 32.6367 21.5835 29.5921C22.1884 26.5476 23.6825 23.7508 25.8769 21.5555C28.0714 19.3602 30.8676 17.865 33.9119 17.259C36.9562 16.653 40.1119 16.9634 42.9797 18.151C45.8476 19.3386 48.2988 21.35 50.0235 23.9308C51.7481 26.5116 52.6686 29.546 52.6686 32.65C52.6639 36.8095 51.0098 40.7974 48.0691 43.7392C45.1285 46.681 41.1412 48.3366 36.9817 48.3429ZM36.9817 18.7622C34.2344 18.761 31.5485 19.5747 29.2638 21.1002C26.979 22.6258 25.1981 24.7947 24.1462 27.3326C23.0943 29.8705 22.8188 32.6634 23.3544 35.3579C23.8901 38.0524 25.2129 40.5275 27.1555 42.4701C29.0981 44.4127 31.5733 45.7355 34.2678 46.2712C36.9623 46.8069 39.7552 46.5314 42.2931 45.4795C44.831 44.4276 46.9999 42.6466 48.5254 40.3619C50.051 38.0771 50.8647 35.3912 50.8635 32.644C50.8587 28.9638 49.3946 25.4357 46.7923 22.8334C44.19 20.2311 40.6619 18.767 36.9817 18.7622Z" fill="white"/>
<path d="M51.6524 51.0329L39.4855 38.866C38.8254 38.2064 37.9305 37.8359 36.9974 37.8359C36.0642 37.8359 35.1693 38.2064 34.5093 38.866L29.2321 44.1431C29.7463 44.4948 30.283 44.8124 30.8387 45.0939L35.7849 40.1417C36.1065 39.8271 36.5385 39.6509 36.9883 39.6509C37.4382 39.6509 37.8702 39.8271 38.1918 40.1417L50.3587 52.3085C50.5969 52.548 50.7591 52.8524 50.8249 53.1837C50.8908 53.515 50.8573 53.8583 50.7288 54.1707C50.6002 54.483 50.3823 54.7504 50.1024 54.9394C49.8225 55.1284 49.493 55.2305 49.1552 55.2329H24.8335C24.4958 55.2305 24.1663 55.1284 23.8863 54.9394C23.6064 54.7504 23.3885 54.483 23.2599 54.1707C23.1314 53.8583 23.0979 53.515 23.1638 53.1837C23.2296 52.8524 23.3919 52.548 23.6301 52.3085L29.5149 46.4236C28.9718 46.1259 28.4455 45.7985 27.9384 45.4429L22.3544 51.0329C21.8566 51.5233 21.5163 52.1511 21.3771 52.836C21.2379 53.5208 21.306 54.2316 21.5727 54.8775C21.8395 55.5234 22.2928 56.0752 22.8747 56.4622C23.4566 56.8492 24.1407 57.0539 24.8395 57.0501H49.1672C49.8653 57.0521 50.5482 56.8465 51.1291 56.4595C51.71 56.0725 52.1628 55.5215 52.4298 54.8765C52.6968 54.2316 52.766 53.5218 52.6287 52.8374C52.4913 52.153 52.1536 51.5249 51.6584 51.0329H51.6524Z" fill="white"/>
<defs>
<linearGradient id="paint0_linear_708_852" x1="5.83672" y1="68.1693" x2="68.1693" y2="5.83672" gradientUnits="userSpaceOnUse">
<stop stop-color="#46BDC5"/>
<stop offset="1" stop-color="#5EDE99"/>
</linearGradient>
</defs>
</svg>
